# Blender v3.0.0 OBJ File: ''
# www.blender.org
mtllib CurveCeiling.mtl
o Plane
v -11.585044 5.527451 17.814356
v 12.968807 5.646614 17.035780
v -11.835343 5.330590 -15.989931
v 12.521774 5.196443 -15.785673
v -12.206995 -0.105774 -0.056093
v 12.199558 -0.108060 -0.050723
v 12.291643 1.234808 -8.433626
v -12.075979 1.325613 -8.606409
v -12.086672 1.270060 8.989116
v 12.383855 1.354260 8.677776
v -11.891004 3.040342 13.474658
v 12.619206 3.151569 12.948107
v 12.248985 0.267044 4.314762
v -12.186728 0.222759 4.448717
v -12.164241 0.270000 -4.436503
v 12.219446 0.220672 -4.329325
v 12.398464 2.906018 -12.279207
v -11.960236 3.026929 -12.483435
v -12.192416 -0.004628 -2.267305
v 12.201882 -0.030757 -2.206406
v 12.249400 0.633879 -6.369128
v -12.125538 0.704609 -6.512892
v -12.020403 2.098058 -10.586506
v 12.341852 1.990427 -10.393889
v 12.459205 3.976556 -14.079672
v -11.897782 4.106522 -14.287642
v 12.214576 -0.009245 2.126711
v -12.205806 -0.030687 2.186262
v -12.147686 0.656059 6.720095
v 12.304773 0.721522 6.502209
v 12.488078 2.164683 10.830168
v -12.001737 2.064969 11.244431
v -11.752679 4.195084 15.668416
v 12.778920 4.313049 15.020361
v -11.672628 4.839198 16.748068
v 12.869997 4.958504 16.035868
v 12.695391 3.710628 13.990641
v -11.825399 3.595386 14.576806
v -11.949708 2.530151 12.363392
v 12.550174 2.636170 11.894148
v 12.432714 1.737322 9.757575
v -12.047312 1.644914 10.119195
v -12.120050 0.940444 7.855608
v 12.341286 1.015630 7.592184
v 12.274085 0.471989 5.409266
v -12.169829 0.416859 5.583993
v -12.198634 0.073633 3.315672
v 12.229232 0.106655 3.220109
v 12.204770 -0.080767 1.035969
v -12.208504 -0.090408 1.061879
v -12.201542 -0.077073 -1.166276
v 12.198682 -0.091313 -1.131974
v 12.208894 0.073341 -3.272644
v -12.179893 0.111198 -3.357828
v -12.146127 0.467071 -5.481655
v 12.232978 0.406831 -5.355105
v 12.269249 0.912724 -7.409100
v -12.101802 0.993815 -7.568502
v -12.048909 1.691948 -9.606244
v 12.315804 1.592329 -9.422493
v 12.369499 2.428526 -11.346543
v -11.990750 2.543284 -11.545972
v -11.929152 3.548263 -13.397711
v 12.428463 3.422255 -13.190656
v 12.490404 4.568202 -14.945067
v -11.866418 4.700909 -15.152088
vt 0.000000 0.968750
vt 1.000000 0.968750
vt 1.000000 1.000000
vt 0.000000 1.000000
vt 0.000000 0.468750
vt 1.000000 0.468750
vt 1.000000 0.500000
vt 0.000000 0.500000
vt 0.000000 0.718149
vt 1.000000 0.718149
vt 1.000000 0.750000
vt 0.000000 0.750000
vt 0.000000 0.218750
vt 1.000000 0.218750
vt 1.000000 0.250000
vt 0.000000 0.250000
vt 0.000000 0.093750
vt 1.000000 0.093750
vt 1.000000 0.125000
vt 0.000000 0.125000
vt 0.000000 0.343750
vt 1.000000 0.343750
vt 1.000000 0.375000
vt 0.000000 0.375000
vt 0.000000 0.593750
vt 1.000000 0.593750
vt 1.000000 0.625000
vt 0.000000 0.625000
vt 0.000000 0.843750
vt 1.000000 0.843750
vt 1.000000 0.875000
vt 0.000000 0.875000
vt 0.000000 0.531250
vt 1.000000 0.531250
vt 1.000000 0.562500
vt 0.000000 0.562500
vt 0.000000 0.655649
vt 1.000000 0.655649
vt 1.000000 0.686299
vt 0.000000 0.686299
vt 0.000000 0.781250
vt 1.000000 0.781250
vt 1.000000 0.812500
vt 0.000000 0.812500
vt 0.000000 0.906250
vt 1.000000 0.906250
vt 1.000000 0.937500
vt 0.000000 0.937500
vt 0.000000 0.406250
vt 1.000000 0.406250
vt 1.000000 0.437500
vt 0.000000 0.437500
vt 0.000000 0.281250
vt 1.000000 0.281250
vt 1.000000 0.312500
vt 0.000000 0.312500
vt 0.000000 0.156250
vt 1.000000 0.156250
vt 1.000000 0.187500
vt 0.000000 0.187500
vt 0.000000 0.031250
vt 1.000000 0.031250
vt 1.000000 0.062500
vt 0.000000 0.062500
vt 0.000000 0.000000
vt 1.000000 0.000000
vn -0.0007 0.8002 0.5997
vn -0.0002 0.9998 -0.0193
vn 0.0013 0.9532 0.3022
vn -0.0079 0.9460 -0.3241
vn -0.0145 0.8877 -0.4602
vn -0.0031 0.9844 -0.1761
vn 0.0012 0.9899 0.1419
vn 0.0005 0.8894 0.4571
vn 0.0007 0.9981 0.0610
vn 0.0014 0.9752 0.2215
vn 0.0010 0.9246 0.3810
vn -0.0001 0.8478 0.5302
vn -0.0014 0.9951 -0.0986
vn -0.0053 0.9679 -0.2514
vn -0.0110 0.9191 -0.3938
vn -0.0186 0.8521 -0.5230
vn -0.0208 0.8329 -0.5530
vn -0.0165 0.8704 -0.4920
vn -0.0127 0.9040 -0.4274
vn -0.0094 0.9332 -0.3594
vn -0.0065 0.9576 -0.2881
vn -0.0041 0.9768 -0.2141
vn -0.0022 0.9905 -0.1376
vn -0.0007 0.9982 -0.0591
vn 0.0003 0.9998 0.0207
vn 0.0010 0.9948 0.1015
vn 0.0013 0.9833 0.1820
vn 0.0014 0.9652 0.2617
vn 0.0012 0.9397 0.3421
vn 0.0008 0.9078 0.4194
vn 0.0002 0.8694 0.4941
vn -0.0004 0.8248 0.5655
usemtl None
s off
f 66/1/1 65/2/1 4/3/1 3/4/1
f 50/5/2 49/6/2 6/7/2 5/8/2
f 58/9/3 57/10/3 7/11/3 8/12/3
f 42/13/4 41/14/4 10/15/4 9/16/4
f 38/17/5 37/18/5 12/19/5 11/20/5
f 46/21/6 45/22/6 13/23/6 14/24/6
f 54/25/7 53/26/7 16/27/7 15/28/7
f 62/29/8 61/30/8 17/31/8 18/32/8
f 51/33/9 52/34/9 20/35/9 19/36/9
f 55/37/10 56/38/10 21/39/10 22/40/10
f 59/41/11 60/42/11 24/43/11 23/44/11
f 63/45/12 64/46/12 25/47/12 26/48/12
f 47/49/13 48/50/13 27/51/13 28/52/13
f 43/53/14 44/54/14 30/55/14 29/56/14
f 39/57/15 40/58/15 31/59/15 32/60/15
f 35/61/16 36/62/16 34/63/16 33/64/16
f 1/65/17 2/66/17 36/62/17 35/61/17
f 33/64/18 34/63/18 37/18/18 38/17/18
f 11/20/19 12/19/19 40/58/19 39/57/19
f 32/60/20 31/59/20 41/14/20 42/13/20
f 9/16/21 10/15/21 44/54/21 43/53/21
f 29/56/22 30/55/22 45/22/22 46/21/22
f 14/24/23 13/23/23 48/50/23 47/49/23
f 28/52/24 27/51/24 49/6/24 50/5/24
f 5/8/25 6/7/25 52/34/25 51/33/25
f 19/36/26 20/35/26 53/26/26 54/25/26
f 15/28/27 16/27/27 56/38/27 55/37/27
f 22/40/28 21/39/28 57/10/28 58/9/28
f 8/12/29 7/11/29 60/42/29 59/41/29
f 23/44/30 24/43/30 61/30/30 62/29/30
f 18/32/31 17/31/31 64/46/31 63/45/31
f 26/48/32 25/47/32 65/2/32 66/1/32
