# Blender v3.0.0 OBJ File: ''
# www.blender.org
mtllib HalfOctagon.mtl
o Object.1
v 127.412666 0.000000 0.000000
v 0.000000 0.000000 0.000000
v 90.094360 84.077309 0.000014
v 90.094360 84.077309 0.000014
v 0.000000 0.000000 0.000000
v 0.000000 118.903252 0.000019
v 0.000000 118.903252 0.000019
v 0.000000 0.000000 0.000000
v -90.094360 84.077309 0.000014
v -90.094360 84.077309 0.000014
v 0.000000 0.000000 0.000000
v -127.412651 0.000000 0.000000
v -127.412651 0.000000 0.000000
v 0.000000 0.000000 0.000000
v 0.000000 0.000000 0.000000
v 0.000000 0.000000 0.000000
v 0.000000 0.000000 0.000000
v 127.412666 0.000000 0.000000
v 127.412666 -0.000004 22.106045
v 90.094360 84.077309 22.106058
v 0.000000 -0.000004 22.106045
v 90.094360 84.077309 22.106058
v 0.000000 118.903252 22.106064
v 0.000000 -0.000004 22.106045
v 0.000000 118.903252 22.106064
v -90.094360 84.077309 22.106058
v 0.000000 -0.000004 22.106045
v -90.094360 84.077309 22.106058
v -127.412651 -0.000004 22.106045
v 0.000000 -0.000004 22.106045
v 0.000000 -0.000004 22.106045
v 127.412666 -0.000004 22.106045
v 0.000000 -0.000004 22.106045
vn 0.0000 0.0000 -1.0000
vn 0.0000 -0.0000 1.0000
vn 0.9140 0.4057 0.0000
vn 0.3606 0.9327 0.0000
vn -0.3606 0.9327 0.0000
vn -0.9140 0.4057 0.0000
usemtl Default_OBJ
s off
f 1//1 2//1 3//1
f 4//1 5//1 6//1
f 7//1 8//1 9//1
f 10//1 11//1 12//1
f 19//2 20//2 21//2
f 22//2 23//2 24//2
f 25//2 26//2 27//2
f 28//2 29//2 30//2
usemtl Metallic_0
f 1//3 20//3 19//3
f 1//3 3//3 20//3
f 3//4 23//4 20//4
f 3//4 6//4 23//4
f 6//5 26//5 23//5
f 6//5 9//5 26//5
f 9//6 29//6 26//6
f 9//6 12//6 29//6
l 13 14
l 17 18
l 32 33
