# Blender v3.0.0 OBJ File: 'Panels.blend'
# www.blender.org
mtllib Swiitch.mtl
o Panel1_Cube.005
v 0.329998 0.063043 0.179350
v 0.329998 0.063043 -0.179350
v -0.329998 0.063043 0.179350
v -0.329998 0.063043 -0.179350
v -0.348803 -0.000000 0.200821
v -0.351470 0.002667 0.198154
v -0.351470 0.002667 -0.198154
v -0.348803 0.000000 -0.200821
v -0.329998 0.084722 -0.179350
v -0.332665 0.087389 -0.182017
v 0.351470 -0.000000 0.198154
v 0.348803 -0.000000 0.200821
v 0.348803 0.000000 -0.200821
v 0.351470 0.000000 -0.198154
v 0.332665 0.087389 -0.182017
v 0.329998 0.084722 -0.179350
v -0.348803 0.084722 0.200821
v -0.348803 0.087389 0.198154
v -0.351470 0.084722 0.198154
v -0.348803 0.087389 -0.198154
v -0.348803 0.084722 -0.200821
v -0.351470 0.084722 -0.198154
v 0.348803 0.084722 -0.200821
v 0.348803 0.087389 -0.198154
v 0.351470 0.084722 -0.198154
v 0.348803 0.087389 0.198154
v 0.348803 0.084722 0.200821
v 0.351470 0.084722 0.198154
v -0.332665 0.087389 0.182017
v -0.329998 0.084722 0.179350
v 0.329998 0.084722 0.179350
v 0.332665 0.087389 0.182017
v -0.025824 0.097938 0.147684
v 0.025895 0.097938 0.147684
v -0.025824 0.063043 0.147684
v 0.025895 0.063043 0.147684
v -0.025824 0.097938 -0.147684
v 0.025895 0.097938 -0.147684
v -0.025824 0.063043 -0.147684
v 0.025895 0.063043 -0.147684
v 0.000018 0.085172 -0.188202
v 0.000018 0.085172 0.184592
v 0.008464 0.083244 -0.188202
v 0.008464 0.083244 0.184592
v 0.015237 0.077843 -0.188202
v 0.015237 0.077843 0.184592
v 0.018996 0.070037 -0.188202
v 0.018996 0.070037 0.184592
v 0.019163 0.062861 -0.188202
v 0.019163 0.062861 0.184592
v -0.019128 0.062861 -0.188202
v -0.019128 0.062861 0.184592
v -0.018960 0.070037 -0.188202
v -0.018960 0.070037 0.184592
v -0.015202 0.077843 -0.188202
v -0.015202 0.077843 0.184592
v -0.008428 0.083244 -0.188202
v -0.008428 0.083244 0.184592
v -0.000018 0.070184 -0.151918
v -0.000018 0.070184 -0.172518
v -0.008911 0.070184 -0.157068
v -0.008911 0.070184 -0.167368
v 0.008876 0.070184 -0.157068
v 0.008876 0.070184 -0.167368
v -0.000018 0.368259 -0.151918
v -0.000018 0.368259 -0.172518
v -0.008911 0.368943 -0.157068
v -0.008911 0.368943 -0.167368
v 0.008876 0.367575 -0.157068
v 0.008876 0.367575 -0.167368
v -0.000018 0.070184 0.151918
v -0.000018 0.070184 0.172518
v -0.008911 0.070184 0.157068
v -0.008911 0.070184 0.167368
v 0.008876 0.070184 0.157068
v 0.008876 0.070184 0.167368
v -0.000018 0.367575 0.151918
v -0.000018 0.367575 0.172518
v -0.008911 0.368259 0.157068
v -0.008911 0.368259 0.167368
v 0.008876 0.366891 0.157068
v 0.008876 0.366891 0.167368
v 0.002503 0.400689 -0.176961
v 0.016472 0.396350 -0.176961
v 0.027175 0.386379 -0.176961
v 0.032493 0.372752 -0.176961
v 0.031371 0.358168 -0.176961
v 0.024032 0.345514 -0.176961
v 0.011930 0.337298 -0.176961
v -0.002538 0.335146 -0.176961
v -0.016508 0.339485 -0.176961
v -0.027211 0.349455 -0.176961
v -0.032528 0.363082 -0.176961
v -0.031406 0.377667 -0.176961
v -0.024068 0.390321 -0.176961
v -0.011966 0.398537 -0.176961
v -0.000018 0.367917 -0.176961
v 0.002503 0.400689 0.176961
v 0.016472 0.396349 0.176961
v 0.027176 0.386379 0.176961
v 0.032493 0.372752 0.176961
v 0.031371 0.358167 0.176961
v 0.024032 0.345514 0.176961
v 0.011930 0.337298 0.176961
v -0.002538 0.335146 0.176961
v -0.016508 0.339485 0.176961
v -0.027211 0.349455 0.176961
v -0.032528 0.363082 0.176961
v -0.031406 0.377667 0.176961
v -0.024068 0.390321 0.176961
v -0.011965 0.398537 0.176961
v -0.000018 0.367917 0.176961
vt 0.150692 0.138740
vt 0.040123 0.138737
vt 0.040123 0.122445
vt 0.150692 0.122444
vt 0.045234 0.050705
vt 0.045234 0.118738
vt 0.040123 0.121203
vt 0.040123 0.048239
vt 0.050807 0.114356
vt 0.140008 0.114356
vt 0.144442 0.117366
vt 0.046372 0.117367
vt 0.144442 0.052075
vt 0.140007 0.055086
vt 0.046372 0.052076
vt 0.050807 0.055086
vt 0.145580 0.118737
vt 0.145580 0.050704
vt 0.150692 0.048239
vt 0.150692 0.121203
vt 0.040123 0.030692
vt 0.150692 0.030692
vt 0.150692 0.046995
vt 0.040123 0.046996
vt 0.164030 0.120588
vt 0.151372 0.121150
vt 0.151372 0.048857
vt 0.164030 0.048295
vt 0.247479 0.187146
vt 0.406465 0.187146
vt 0.406465 0.276001
vt 0.247479 0.276001
vt 0.026310 0.048872
vt 0.039349 0.048292
vt 0.039349 0.120585
vt 0.026311 0.121165
vt 0.151372 0.122170
vt 0.151372 0.048051
vt 0.039349 0.047270
vt 0.039349 0.121391
vt 0.031999 0.215874
vt 0.032000 0.284820
vt 0.030595 0.284372
vt 0.030587 0.216719
vt 0.151372 0.138075
vt 0.151372 0.031444
vt 0.039349 0.030809
vt 0.039349 0.138573
vt 0.173461 0.284820
vt 0.173460 0.215873
vt 0.174858 0.216317
vt 0.174873 0.283624
vt 0.274301 0.058319
vt 0.274301 0.079965
vt 0.259646 0.079965
vt 0.259646 0.058319
vt 0.398349 0.058319
vt 0.398349 0.079965
vt 0.413005 0.058319
vt 0.413005 0.079965
vt 0.274301 0.043713
vt 0.398349 0.043713
vt 0.383604 0.231916
vt 0.273971 0.231917
vt 0.273965 0.221216
vt 0.383598 0.221215
vt 0.383600 0.224888
vt 0.273967 0.224890
vt 0.273961 0.214189
vt 0.383594 0.214188
vt 0.383596 0.217861
vt 0.273964 0.217863
vt 0.273958 0.207162
vt 0.383590 0.207161
vt 0.383592 0.210834
vt 0.273960 0.210836
vt 0.273955 0.201972
vt 0.383587 0.201971
vt 0.383618 0.258187
vt 0.273986 0.258188
vt 0.273981 0.249324
vt 0.383613 0.249323
vt 0.383615 0.252996
vt 0.273983 0.252998
vt 0.273977 0.242297
vt 0.383609 0.242296
vt 0.383612 0.245969
vt 0.273979 0.245971
vt 0.273973 0.235270
vt 0.383606 0.235269
vt 0.383608 0.238942
vt 0.273975 0.238944
vt 0.273969 0.228243
vt 0.383602 0.228242
vt 0.398349 0.094571
vt 0.274301 0.094571
vt 0.362949 -5.566278
vt 0.333670 -245.207550
vt 0.319827 -245.654404
vt 0.349145 -5.564381
vt 0.308910 -5.565169
vt 0.335048 -245.687408
vt 0.321213 -245.621857
vt 0.295106 -5.576238
vt 0.322752 6.235486
vt 0.350458 247.027039
vt 0.336608 246.845184
vt 0.308948 6.244948
vt 0.294405 -2.610118
vt 0.294528 -122.199020
vt 0.280676 -122.207603
vt 0.280540 -2.610325
vt 0.336018 3.291493
vt 0.336773 123.974907
vt 0.322910 123.974937
vt 0.322153 3.291489
vt 0.349267 6.244928
vt 0.324923 246.844513
vt 0.311095 247.017593
vt 0.335464 6.235249
vt 0.281174 -5.566676
vt 0.294979 -5.563010
vt 0.318451 -245.046570
vt 0.304588 -244.672852
vt 0.335322 -5.562476
vt 0.349127 -5.567027
vt 0.321640 -244.687378
vt 0.307785 -245.024231
vt 0.321572 6.234274
vt 0.335377 6.246603
vt 0.310074 246.362030
vt 0.296219 246.423828
vt 0.349863 -2.610018
vt 0.363729 -2.610237
vt 0.363579 -121.928894
vt 0.349716 -121.919800
vt 0.308288 3.291322
vt 0.322154 3.291587
vt 0.322975 123.702499
vt 0.309120 123.691360
vt 0.295118 6.244652
vt 0.308924 6.235134
vt 0.338120 246.461121
vt 0.324234 246.281372
vt 0.652997 0.523043
vt 0.652997 0.543320
vt 0.489784 0.543322
vt 0.489784 0.523046
vt 0.652997 0.563596
vt 0.489784 0.563598
vt 0.652997 0.583873
vt 0.489784 0.583875
vt 0.652997 0.604150
vt 0.489784 0.604151
vt 0.652997 0.624427
vt 0.489784 0.624427
vt 0.652996 0.340551
vt 0.652996 0.360828
vt 0.489783 0.360829
vt 0.489783 0.340553
vt 0.652996 0.381105
vt 0.489783 0.381106
vt 0.652996 0.401381
vt 0.489783 0.401384
vt 0.652996 0.421658
vt 0.489783 0.421661
vt 0.652996 0.441935
vt 0.489783 0.441939
vt 0.652996 0.462212
vt 0.489783 0.462216
vt 0.652996 0.482489
vt 0.489783 0.482494
vt 0.652996 0.502766
vt 0.489784 0.502770
vt 0.506277 0.634519
vt 0.495829 0.632135
vt 0.506277 0.610440
vt 0.487451 0.625453
vt 0.482802 0.615798
vt 0.482802 0.605082
vt 0.487451 0.595427
vt 0.495829 0.588746
vt 0.506277 0.586361
vt 0.516724 0.588746
vt 0.525103 0.595427
vt 0.529752 0.605082
vt 0.529752 0.615798
vt 0.525103 0.625453
vt 0.516724 0.632135
vt 0.643138 0.636517
vt 0.643138 0.612438
vt 0.653586 0.634132
vt 0.661964 0.627451
vt 0.666614 0.617796
vt 0.666614 0.607080
vt 0.661964 0.597425
vt 0.653586 0.590743
vt 0.643138 0.588359
vt 0.632691 0.590743
vt 0.624313 0.597425
vt 0.619663 0.607080
vt 0.619663 0.617796
vt 0.624313 0.627451
vt 0.632691 0.634132
vn 0.0000 -0.0000 1.0000
vn 0.0000 1.0000 -0.0000
vn 0.0000 0.0000 -1.0000
vn 1.0000 0.0000 0.0000
vn -1.0000 0.0000 0.0000
vn -0.5774 0.5774 0.5773
vn -0.5774 0.5774 -0.5773
vn 0.5774 0.5774 -0.5773
vn 0.5774 0.5774 0.5773
vn -0.7071 -0.7071 -0.0000
vn -0.7071 -0.0000 0.7071
vn -0.7071 0.7071 0.0000
vn -0.7071 0.0000 -0.7071
vn 0.7071 0.0000 -0.7071
vn 0.7071 0.7071 0.0000
vn 0.7071 -0.0000 0.7071
vn 0.0000 0.7071 -0.7071
vn 0.0000 0.7071 0.7071
vn -0.0000 -1.0000 -0.0000
vn 0.4339 0.9010 0.0000
vn 0.7818 0.6235 -0.0000
vn 0.9723 0.2339 -0.0000
vn 0.9997 0.0233 -0.0000
vn -0.9997 0.0233 0.0000
vn -0.9723 0.2339 0.0000
vn -0.7818 0.6235 0.0000
vn -0.4339 0.9010 0.0000
vn 0.5011 -0.0000 0.8654
vn 0.5011 0.0000 -0.8654
vn -0.5011 0.0000 -0.8654
vn -0.5011 -0.0000 0.8654
vn 0.5017 0.8650 -0.0000
vn 0.8273 0.5617 -0.0000
vn 0.9891 0.1471 -0.0000
vn 0.9550 -0.2966 -0.0000
vn 0.7317 -0.6816 -0.0000
vn 0.3635 -0.9316 -0.0000
vn -0.0767 -0.9971 -0.0000
vn -0.5017 -0.8650 0.0000
vn -0.8273 -0.5617 0.0000
vn -0.9891 -0.1471 0.0000
vn -0.9550 0.2966 0.0000
vn -0.7317 0.6816 0.0000
vn -0.3635 0.9316 0.0000
vn 0.0767 0.9971 0.0000
usemtl Gradient
s 1
f 5/1/1 12/2/1 27/3/1 17/4/1
f 15/5/2 32/6/2 26/7/2 24/8/2
f 1/9/3 3/10/3 30/11/3 31/12/3
f 9/13/4 30/11/4 3/10/4 4/14/4
f 31/12/5 16/15/5 2/16/5 1/9/5
f 4/14/1 2/16/1 16/15/1 9/13/1
f 29/17/2 10/18/2 20/19/2 18/20/2
f 20/19/2 10/18/2 15/5/2 24/8/2
f 13/21/3 8/22/3 21/23/3 23/24/3
f 6/25/5 19/26/5 22/27/5 7/28/5
f 2/29/2 4/30/2 3/31/2 1/32/2
f 14/33/4 25/34/4 28/35/4 11/36/4
f 26/7/2 32/6/2 29/17/2 18/20/2
f 17/4/6 18/20/6 19/37/6
f 20/19/7 21/23/7 22/38/7
f 23/24/8 24/8/8 25/39/8
f 26/7/9 27/3/9 28/40/9
f 8/41/10 5/42/10 6/43/10 7/44/10
f 5/1/11 17/4/11 19/37/11 6/45/11
f 18/20/12 20/19/12 22/27/12 19/26/12
f 21/23/13 8/22/13 7/46/13 22/38/13
f 25/39/14 14/47/14 13/21/14 23/24/14
f 24/8/15 26/7/15 28/35/15 25/34/15
f 27/3/16 12/2/16 11/48/16 28/40/16
f 16/15/12 31/12/12 32/6/12 15/5/12
f 30/11/15 9/13/15 10/18/15 29/17/15
f 29/17/17 32/6/17 31/12/17 30/11/17
f 20/19/17 24/8/17 23/24/17 21/23/17
f 9/13/18 16/15/18 15/5/18 10/18/18
f 26/7/18 18/20/18 17/4/18 27/3/18
f 12/49/19 13/50/19 14/51/19 11/52/19
f 34/53/1 33/54/1 35/55/1 36/56/1
f 38/57/2 37/58/2 33/54/2 34/53/2
f 40/59/3 39/60/3 37/58/3 38/57/3
f 36/61/4 40/62/4 38/57/4 34/53/4
f 41/63/2 42/64/2 44/65/20 43/66/20
f 43/67/20 44/68/20 46/69/21 45/70/21
f 45/71/21 46/72/21 48/73/22 47/74/22
f 47/75/22 48/76/22 50/77/23 49/78/23
f 51/79/24 52/80/24 54/81/25 53/82/25
f 53/83/25 54/84/25 56/85/26 55/86/26
f 55/87/26 56/88/26 58/89/27 57/90/27
f 57/91/27 58/92/27 42/93/2 41/94/2
f 5/42/19 8/41/19 13/50/19 12/49/19
f 37/58/5 39/95/5 35/96/5 33/54/5
f 63/97/28 69/98/28 65/99/28 59/100/28
f 60/101/29 66/102/29 70/103/29 64/104/29
f 62/105/30 68/106/30 66/107/30 60/108/30
f 64/109/4 70/110/4 69/111/4 63/112/4
f 61/113/5 67/114/5 68/115/5 62/116/5
f 59/117/31 65/118/31 67/119/31 61/120/31
f 75/121/29 71/122/29 77/123/29 81/124/29
f 72/125/28 76/126/28 82/127/28 78/128/28
f 74/129/31 72/130/31 78/131/31 80/132/31
f 76/133/4 75/134/4 81/135/4 82/136/4
f 73/137/5 74/138/5 80/139/5 79/140/5
f 71/141/30 73/142/30 79/143/30 77/144/30
f 99/145/32 100/146/33 85/147/33 84/148/32
f 100/146/33 101/149/34 86/150/34 85/147/33
f 101/149/34 102/151/35 87/152/35 86/150/34
f 102/151/35 103/153/36 88/154/36 87/152/35
f 103/153/36 104/155/37 89/156/37 88/154/36
f 104/157/37 105/158/38 90/159/38 89/160/37
f 105/158/38 106/161/39 91/162/39 90/159/38
f 106/161/39 107/163/40 92/164/40 91/162/39
f 107/163/40 108/165/41 93/166/41 92/164/40
f 108/165/41 109/167/42 94/168/42 93/166/41
f 109/167/42 110/169/43 95/170/43 94/168/42
f 110/169/43 111/171/44 96/172/44 95/170/43
f 111/171/44 98/173/45 83/174/45 96/172/44
f 83/175/3 84/176/3 97/177/3
f 84/176/3 85/178/3 97/177/3
f 85/178/3 86/179/3 97/177/3
f 86/179/3 87/180/3 97/177/3
f 87/180/3 88/181/3 97/177/3
f 88/181/3 89/182/3 97/177/3
f 89/182/3 90/183/3 97/177/3
f 90/183/3 91/184/3 97/177/3
f 91/184/3 92/185/3 97/177/3
f 92/185/3 93/186/3 97/177/3
f 93/186/3 94/187/3 97/177/3
f 94/187/3 95/188/3 97/177/3
f 95/188/3 96/189/3 97/177/3
f 96/189/3 83/175/3 97/177/3
f 98/190/1 112/191/1 99/192/1
f 99/192/1 112/191/1 100/193/1
f 100/193/1 112/191/1 101/194/1
f 101/194/1 112/191/1 102/195/1
f 102/195/1 112/191/1 103/196/1
f 103/196/1 112/191/1 104/197/1
f 104/197/1 112/191/1 105/198/1
f 105/198/1 112/191/1 106/199/1
f 106/199/1 112/191/1 107/200/1
f 107/200/1 112/191/1 108/201/1
f 108/201/1 112/191/1 109/202/1
f 109/202/1 112/191/1 110/203/1
f 110/203/1 112/191/1 111/204/1
f 111/204/1 112/191/1 98/190/1
f 98/173/45 99/145/32 84/148/32 83/174/45
o Panel3_Cube.037
v 0.329998 0.063043 0.179350
v 0.329998 0.063043 -0.179350
v -0.329998 0.063043 0.179350
v -0.329998 0.063043 -0.179350
v -0.348803 -0.000000 0.200821
v -0.351470 0.002667 0.198154
v -0.351470 0.002667 -0.198154
v -0.348803 0.000000 -0.200821
v -0.329998 0.084722 -0.179350
v -0.332665 0.087389 -0.182017
v 0.351470 -0.000000 0.198154
v 0.348803 -0.000000 0.200821
v 0.348803 0.000000 -0.200821
v 0.351470 0.000000 -0.198154
v 0.332665 0.087389 -0.182017
v 0.329998 0.084722 -0.179350
v -0.348803 0.084722 0.200821
v -0.348803 0.087389 0.198154
v -0.351470 0.084722 0.198154
v -0.348803 0.087389 -0.198154
v -0.348803 0.084722 -0.200821
v -0.351470 0.084722 -0.198154
v 0.348803 0.084722 -0.200821
v 0.348803 0.087389 -0.198154
v 0.351470 0.084722 -0.198154
v 0.348803 0.087389 0.198154
v 0.348803 0.084722 0.200821
v 0.351470 0.084722 0.198154
v -0.332665 0.087389 0.182017
v -0.329998 0.084722 0.179350
v 0.329998 0.084722 0.179350
v 0.332665 0.087389 0.182017
v -0.025824 0.097938 0.147684
v 0.025895 0.097938 0.147684
v -0.025824 0.063043 0.147684
v 0.025895 0.063043 0.147684
v -0.025824 0.097938 -0.147684
v 0.025895 0.097938 -0.147684
v -0.025824 0.063043 -0.147684
v 0.025895 0.063043 -0.147684
v 0.000018 0.078489 -0.188202
v 0.000018 0.078489 0.184592
v 0.007366 0.077223 -0.188202
v 0.007366 0.077223 0.184592
v 0.013259 0.073676 -0.188202
v 0.013259 0.073676 0.184592
v 0.016529 0.068550 -0.188202
v 0.016530 0.068550 0.184592
v 0.016529 0.062861 -0.188202
v 0.016530 0.062861 0.184592
v -0.016494 0.062861 -0.188202
v -0.016494 0.062861 0.184592
v -0.016494 0.068550 -0.188202
v -0.016494 0.068550 0.184592
v -0.013224 0.073676 -0.188202
v -0.013224 0.073676 0.184592
v -0.007331 0.077223 -0.188202
v -0.007331 0.077223 0.184592
v -0.025824 0.097938 0.023366
v -0.025824 0.097938 -0.023366
v -0.025824 0.063043 0.023366
v -0.025824 0.063043 -0.023366
v 0.025895 0.097938 -0.023366
v 0.025895 0.097938 0.023366
v 0.025895 0.063043 -0.023366
v 0.025895 0.063043 0.023366
v 0.000035 0.066103 -0.010300
v 0.000035 0.066103 0.010300
v -0.008847 0.066916 -0.005150
v -0.008847 0.066916 0.005150
v 0.008918 0.065291 -0.005150
v 0.008918 0.065291 0.005150
v 0.000035 0.341480 -0.010300
v 0.000035 0.341480 0.010300
v -0.008847 0.342292 -0.005150
v -0.008847 0.342292 0.005150
v 0.008918 0.340667 -0.005150
v 0.008918 0.340667 0.005150
v 0.003030 0.374211 -0.176961
v 0.016935 0.369670 -0.176961
v 0.027493 0.359546 -0.176961
v 0.032612 0.345844 -0.176961
v 0.031280 0.331277 -0.176961
v 0.023759 0.318731 -0.176961
v 0.011539 0.310690 -0.176961
v -0.002959 0.308748 -0.176961
v -0.016864 0.313289 -0.176961
v -0.027422 0.323413 -0.176961
v -0.032542 0.337115 -0.176961
v -0.031209 0.351682 -0.176961
v -0.023688 0.364228 -0.176961
v -0.011468 0.372269 -0.176961
v 0.000035 0.341480 -0.176961
v 0.003030 0.374211 0.176961
v 0.016935 0.369670 0.176961
v 0.027493 0.359546 0.176961
v 0.032613 0.345844 0.176961
v 0.031280 0.331277 0.176961
v 0.023759 0.318731 0.176961
v 0.011539 0.310690 0.176961
v -0.002959 0.308748 0.176961
v -0.016864 0.313289 0.176961
v -0.027422 0.323413 0.176961
v -0.032542 0.337115 0.176961
v -0.031209 0.351682 0.176961
v -0.023688 0.364228 0.176961
v -0.011468 0.372269 0.176961
v 0.000036 0.341479 0.176961
vt 0.024771 0.251209
vt 0.024776 0.083508
vt 0.049714 0.089225
vt 0.048642 0.247279
vt 0.153732 0.089109
vt 0.055214 0.093116
vt 0.051444 0.089115
vt 0.157344 0.085049
vt 0.062798 0.099597
vt 0.060491 0.234786
vt 0.056081 0.241602
vt 0.057096 0.094789
vt 0.150708 0.237670
vt 0.145006 0.232862
vt 0.151724 0.090857
vt 0.147314 0.097674
vt 0.054073 0.243351
vt 0.152591 0.239344
vt 0.156361 0.243344
vt 0.050461 0.247410
vt 0.183048 0.081252
vt 0.183048 0.249057
vt 0.158081 0.243232
vt 0.159166 0.085181
vt 0.051361 0.271710
vt 0.050538 0.249299
vt 0.156438 0.245233
vt 0.157261 0.267645
vt 0.141539 0.093446
vt 0.141539 0.232753
vt 0.067467 0.232753
vt 0.067467 0.093446
vt 0.156417 0.060020
vt 0.157267 0.083161
vt 0.051367 0.087226
vt 0.050516 0.064086
vt 0.049043 0.248578
vt 0.157619 0.244548
vt 0.158764 0.083878
vt 0.050185 0.087902
vt 0.027650 0.293516
vt 0.161980 0.293516
vt 0.161107 0.295883
vt 0.029297 0.295897
vt 0.025745 0.252254
vt 0.181945 0.250092
vt 0.182877 0.080062
vt 0.025017 0.082362
vt 0.161980 0.055037
vt 0.027650 0.055037
vt 0.028515 0.052682
vt 0.159651 0.052656
vt 0.062730 0.201050
vt 0.062730 0.186991
vt 0.072010 0.186991
vt 0.072010 0.201050
vt 0.029668 0.186991
vt 0.029668 0.177506
vt 0.062730 0.177506
vt 0.077181 0.200484
vt 0.077181 0.186425
vt 0.086461 0.186425
vt 0.086461 0.200484
vt 0.114309 0.954555
vt 0.114310 0.855554
vt 0.116203 0.855554
vt 0.116203 0.954555
vt 0.117949 0.855554
vt 0.117949 0.954555
vt 0.119601 0.855552
vt 0.119601 0.954553
vt 0.121253 0.855549
vt 0.121253 0.954550
vt 0.107366 0.954561
vt 0.107368 0.855560
vt 0.109020 0.855556
vt 0.109018 0.954557
vt 0.110671 0.855554
vt 0.110670 0.954555
vt 0.112417 0.855554
vt 0.112416 0.954555
vt 0.062730 0.210536
vt 0.029668 0.210536
vt 0.029668 0.201050
vt 0.119522 0.209969
vt 0.086461 0.209969
vt 0.119522 0.200484
vt 0.086461 0.176939
vt 0.119522 0.176939
vt 0.119522 0.186425
vt 0.128803 0.186425
vt 0.128803 0.200484
vt 0.020388 0.186991
vt 0.020388 0.201050
vt 0.182051 0.534577
vt 0.182051 0.541625
vt 371239.906250 -0.062500
vt 337250.250000 -0.062500
vt 0.182051 0.562767
vt 0.182051 0.569815
vt 1628185.500000 2.750000
vt -1613561.000000 -1.000000
vt 0.182051 0.555720
vt 298930.375000 0.593750
vt 250648.812500 0.593750
vt 0.182051 0.576862
vt 324733.562500 0.812500
vt 541222.812500 1.062500
vt 0.182051 0.548672
vt 405638.843750 0.250000
vt 1622554.625000 -0.500000
vt 3280499.500000 -1.500000
vt 662146.125000 0.125000
vt 0.510935 0.466861
vt 0.510935 0.450777
vt 0.641563 0.450777
vt 0.641563 0.466862
vt 0.510935 0.434692
vt 0.641563 0.434693
vt 0.510935 0.418607
vt 0.641563 0.418608
vt 0.510935 0.402521
vt 0.641563 0.402524
vt 0.510935 0.386436
vt 0.641563 0.386439
vt 0.510935 0.611627
vt 0.510935 0.595542
vt 0.641563 0.595544
vt 0.641563 0.611628
vt 0.510935 0.579457
vt 0.641563 0.579458
vt 0.510935 0.563372
vt 0.641563 0.563372
vt 0.510935 0.547287
vt 0.641563 0.547287
vt 0.510935 0.531202
vt 0.641563 0.531201
vt 0.510935 0.515117
vt 0.641563 0.515116
vt 0.510935 0.499032
vt 0.641563 0.499030
vt 0.510935 0.482947
vt 0.641563 0.482946
vt 0.522325 0.557853
vt 0.512567 0.555626
vt 0.522325 0.535364
vt 0.504742 0.549385
vt 0.500399 0.540368
vt 0.500399 0.530359
vt 0.504742 0.521342
vt 0.512567 0.515102
vt 0.522325 0.512875
vt 0.532082 0.515102
vt 0.539907 0.521342
vt 0.544250 0.530359
vt 0.544250 0.540368
vt 0.539907 0.549385
vt 0.532082 0.555626
vt 0.584680 0.530359
vt 0.606605 0.535364
vt 0.584680 0.540368
vt 0.589022 0.549385
vt 0.596847 0.555626
vt 0.606605 0.557853
vt 0.616363 0.555626
vt 0.624188 0.549385
vt 0.628530 0.540368
vt 0.628530 0.530359
vt 0.624188 0.521342
vt 0.616363 0.515102
vt 0.606605 0.512875
vt 0.596847 0.515102
vt 0.589022 0.521342
vn 0.0000 -0.0000 1.0000
vn 0.0000 1.0000 -0.0000
vn 0.0000 0.0000 -1.0000
vn 1.0000 0.0000 0.0000
vn -1.0000 0.0000 0.0000
vn -0.5774 0.5774 0.5773
vn -0.5774 0.5774 -0.5773
vn 0.5774 0.5774 -0.5773
vn 0.5774 0.5774 0.5773
vn -0.7071 -0.7071 -0.0000
vn -0.7071 -0.0000 0.7071
vn -0.7071 0.7071 0.0000
vn -0.7071 0.0000 -0.7071
vn 0.7071 0.0000 -0.7071
vn 0.7071 0.7071 0.0000
vn 0.7071 -0.0000 0.7071
vn 0.0000 0.7071 -0.7071
vn 0.0000 0.7071 0.7071
vn -0.0000 -1.0000 -0.0000
vn 0.3487 0.9372 0.0000
vn 0.6978 0.7163 0.0000
vn 0.8430 0.5379 -0.0000
vn -0.8430 0.5379 0.0000
vn -0.6978 0.7163 0.0000
vn -0.3487 0.9372 0.0000
vn 0.5016 0.0000 -0.8651
vn 0.5016 -0.0000 0.8651
vn -0.5016 -0.0000 0.8651
vn -0.5016 0.0000 -0.8651
vn 0.5142 0.8577 0.0000
vn 0.8354 0.5497 -0.0000
vn 0.9911 0.1328 -0.0000
vn 0.9506 -0.3104 -0.0000
vn 0.7218 -0.6921 -0.0000
vn 0.3500 -0.9367 -0.0000
vn -0.0911 -0.9958 -0.0000
vn -0.5142 -0.8577 0.0000
vn -0.8354 -0.5497 0.0000
vn -0.9911 -0.1328 0.0000
vn -0.9506 0.3104 0.0000
vn -0.7218 0.6921 0.0000
vn -0.3500 0.9367 0.0000
vn 0.0911 0.9958 0.0000
usemtl Gradient
s 1
f 117/205/46 124/206/46 139/207/46 129/208/46
f 127/209/47 144/210/47 138/211/47 136/212/47
f 113/213/48 115/214/48 142/215/48 143/216/48
f 121/217/49 142/215/49 115/214/49 116/218/49
f 143/216/50 128/219/50 114/220/50 113/213/50
f 116/218/46 114/220/46 128/219/46 121/217/46
f 141/221/47 122/222/47 132/223/47 130/224/47
f 132/223/47 122/222/47 127/209/47 136/212/47
f 125/225/48 120/226/48 133/227/48 135/228/48
f 118/229/50 131/230/50 134/231/50 119/232/50
f 114/233/47 116/234/47 115/235/47 113/236/47
f 126/237/49 137/238/49 140/239/49 123/240/49
f 138/211/47 144/210/47 141/221/47 130/224/47
f 129/208/51 130/224/51 131/241/51
f 132/223/52 133/227/52 134/242/52
f 135/228/53 136/212/53 137/243/53
f 138/211/54 139/207/54 140/244/54
f 120/245/55 117/246/55 118/247/55 119/248/55
f 117/205/56 129/208/56 131/241/56 118/249/56
f 130/224/57 132/223/57 134/231/57 131/230/57
f 133/227/58 120/226/58 119/250/58 134/242/58
f 137/243/59 126/251/59 125/225/59 135/228/59
f 136/212/60 138/211/60 140/239/60 137/238/60
f 139/207/61 124/206/61 123/252/61 140/244/61
f 128/219/57 143/216/57 144/210/57 127/209/57
f 142/215/60 121/217/60 122/222/60 141/221/60
f 141/221/62 144/210/62 143/216/62 142/215/62
f 132/223/62 136/212/62 135/228/62 133/227/62
f 121/217/63 128/219/63 127/209/63 122/222/63
f 138/211/63 130/224/63 129/208/63 139/207/63
f 124/253/64 125/254/64 126/255/64 123/256/64
f 146/257/46 145/258/46 147/259/46 148/260/46
f 171/261/50 173/262/50 147/263/50 145/258/50
f 152/264/48 151/265/48 149/266/48 150/267/48
f 153/268/47 154/269/47 156/270/65 155/271/65
f 155/271/65 156/270/65 158/272/66 157/273/66
f 157/273/66 158/272/66 160/274/67 159/275/67
f 159/275/49 160/274/49 162/276/49 161/277/49
f 163/278/50 164/279/50 166/280/50 165/281/50
f 165/281/68 166/280/68 168/282/69 167/283/69
f 167/283/69 168/282/69 170/284/70 169/285/70
f 169/285/70 170/284/70 154/269/47 153/268/47
f 117/246/64 120/245/64 125/254/64 124/253/64
f 148/286/49 178/287/49 176/288/49 146/257/49
f 176/288/47 171/261/47 145/258/47 146/257/47
f 177/289/49 152/290/49 150/267/49 175/291/49
f 149/266/50 151/292/50 174/293/50 172/294/50
f 172/294/46 174/295/46 177/296/46 175/291/46
f 173/297/48 171/261/48 176/288/48 178/298/48
f 150/267/47 149/266/47 172/294/47 175/291/47
f 183/299/71 179/300/71 185/301/71 189/302/71
f 180/303/72 184/304/72 190/305/72 186/306/72
f 182/307/73 180/303/73 186/308/73 188/309/73
f 184/304/49 183/310/49 189/311/49 190/312/49
f 181/313/50 182/307/50 188/314/50 187/315/50
f 179/300/74 181/313/74 187/316/74 185/317/74
f 207/318/75 208/319/76 193/320/76 192/321/75
f 208/319/76 209/322/77 194/323/77 193/320/76
f 209/322/77 210/324/78 195/325/78 194/323/77
f 210/324/78 211/326/79 196/327/79 195/325/78
f 211/326/79 212/328/80 197/329/80 196/327/79
f 212/330/80 213/331/81 198/332/81 197/333/80
f 213/331/81 214/334/82 199/335/82 198/332/81
f 214/334/82 215/336/83 200/337/83 199/335/82
f 215/336/83 216/338/84 201/339/84 200/337/83
f 216/338/84 217/340/85 202/341/85 201/339/84
f 217/340/85 218/342/86 203/343/86 202/341/85
f 218/342/86 219/344/87 204/345/87 203/343/86
f 219/344/87 206/346/88 191/347/88 204/345/87
f 191/348/48 192/349/48 205/350/48
f 192/349/48 193/351/48 205/350/48
f 193/351/48 194/352/48 205/350/48
f 194/352/48 195/353/48 205/350/48
f 195/353/48 196/354/48 205/350/48
f 196/354/48 197/355/48 205/350/48
f 197/355/48 198/356/48 205/350/48
f 198/356/48 199/357/48 205/350/48
f 199/357/48 200/358/48 205/350/48
f 200/358/48 201/359/48 205/350/48
f 201/359/48 202/360/48 205/350/48
f 202/360/48 203/361/48 205/350/48
f 203/361/48 204/362/48 205/350/48
f 204/362/48 191/348/48 205/350/48
f 206/363/46 220/364/46 207/365/46
f 207/365/46 220/364/46 208/366/46
f 208/366/46 220/364/46 209/367/46
f 209/367/46 220/364/46 210/368/46
f 210/368/46 220/364/46 211/369/46
f 211/369/46 220/364/46 212/370/46
f 212/370/46 220/364/46 213/371/46
f 213/371/46 220/364/46 214/372/46
f 214/372/46 220/364/46 215/373/46
f 215/373/46 220/364/46 216/374/46
f 216/374/46 220/364/46 217/375/46
f 217/375/46 220/364/46 218/376/46
f 218/376/46 220/364/46 219/377/46
f 219/377/46 220/364/46 206/363/46
f 206/346/88 207/318/75 192/321/75 191/347/88
