# 3ds Max Wavefront OBJ Exporter v0.97b - (c)2007 guruware
# File Created: 18.01.2020 22:56:01

mtllib WallOutlet.mtl

#
# object 125_VAC_USA_Wall_Outlet_001
#

v  14.1528 15.2889 0.2778
v  14.1528 17.7165 0.2778
v  12.7886 17.7165 0.2778
v  12.7886 15.2889 0.2778
v  14.1528 20.1442 0.2778
v  12.7886 20.1442 0.2778
v  11.4244 20.1442 0.2778
v  11.4244 17.7165 0.2778
v  11.4244 15.2889 0.2778
v  12.7886 15.2118 0.1496
v  14.2299 15.2118 0.1496
v  11.3473 15.2118 0.1496
v  11.2703 15.1347 0.0215
v  12.7886 15.1347 0.0215
v  14.3070 15.1347 0.0215
v  12.7886 20.2213 0.1496
v  11.3473 20.2213 0.1496
v  14.2299 20.2213 0.1496
v  14.3070 20.2983 0.0215
v  12.7886 20.2983 0.0215
v  11.2703 20.2983 0.0215
v  14.2299 17.7165 0.1496
v  14.3070 17.7165 0.0215
v  11.3473 17.7165 0.1496
v  11.2703 17.7165 0.0215
# 25 vertices

vn 0.3952 -0.3952 0.8292
vn 0.4922 0.0000 0.8704
vn 0.0000 0.0000 1.0000
vn 0.0000 -0.4922 0.8704
vn 0.3952 0.3952 0.8292
vn 0.0000 0.4922 0.8704
vn -0.3952 0.3952 0.8292
vn -0.4922 0.0000 0.8704
vn -0.3952 -0.3952 0.8292
vn 0.0000 -0.8569 0.5154
vn 0.5386 -0.5386 0.6479
vn -0.5386 -0.5386 0.6479
vn 0.0000 0.8569 0.5154
vn -0.5386 0.5386 0.6479
vn 0.5386 0.5386 0.6479
vn 0.8569 0.0000 0.5154
vn -0.8569 0.0000 0.5154
# 17 vertex normals

vt 0.8454 0.0907 0.0000
vt 0.8440 0.5010 0.0000
vt 0.4925 0.5022 0.0000
vt 0.4917 0.0914 0.0000
vt 0.8426 0.9114 0.0000
vt 0.4933 0.9130 0.0000
vt 0.1439 0.9146 0.0000
vt 0.1410 0.5034 0.0000
vt 0.1380 0.0921 0.0000
vt 0.4917 0.0784 0.0000
vt 0.8654 0.0776 0.0000
vt 0.1180 0.0791 0.0000
vt 0.0979 0.0661 0.0000
vt 0.4917 0.0653 0.0000
vt 0.8854 0.0645 0.0000
vt 0.4933 0.9261 0.0000
vt 0.1243 0.9278 0.0000
vt 0.8623 0.9244 0.0000
vt 0.8821 0.9373 0.0000
vt 0.4933 0.9391 0.0000
vt 0.1046 0.9409 0.0000
vt 0.8639 0.5010 0.0000
vt 0.8837 0.5009 0.0000
vt 0.1211 0.5034 0.0000
vt 0.1013 0.5035 0.0000
# 25 texture coords

o 125_VAC_USA_Wall_Outlet_001
g 125_VAC_USA_Wall_Outlet_001
usemtl Plastic___Shiny__White
s off
f 1/1/1 2/2/2 3/3/3 4/4/4 
f 2/2/2 5/5/5 6/6/6 3/3/3 
f 3/3/3 6/6/6 7/7/7 8/8/8 
f 4/4/4 3/3/3 8/8/8 9/9/9 
f 1/1/1 4/4/4 10/10/10 11/11/11 
f 4/4/4 9/9/9 12/12/12 10/10/10 
f 10/10/10 12/12/12 13/13/12 14/14/10 
f 11/11/11 10/10/10 14/14/10 15/15/11 
f 7/7/7 6/6/6 16/16/13 17/17/14 
f 6/6/6 5/5/5 18/18/15 16/16/13 
f 16/16/13 18/18/15 19/19/15 20/20/13 
f 17/17/14 16/16/13 20/20/13 21/21/14 
f 5/5/5 2/2/2 22/22/16 18/18/15 
f 2/2/2 1/1/1 11/11/11 22/22/16 
f 22/22/16 11/11/11 15/15/11 23/23/16 
f 18/18/15 22/22/16 23/23/16 19/19/15 
f 9/9/9 8/8/8 24/24/17 12/12/12 
f 8/8/8 7/7/7 17/17/14 24/24/17 
f 24/24/17 17/17/14 21/21/14 25/25/17 
f 12/12/12 24/24/17 25/25/17 13/13/12 
# 20 polygons

