# Blender v3.0.0 OBJ File: ''
# www.blender.org
mtllib PlaceholderBigCeiling2.mtl
o Text.001
v -4.291540 7.040737 2.887919
v -2.122467 7.040736 5.065077
v 1.897143 7.040736 5.065077
v 4.066216 7.040739 -3.590267
v 1.897143 7.040739 -5.775037
v -2.122467 7.040739 -5.775037
v -4.291540 7.040739 -3.590267
v -2.122467 9.191008 -5.775036
v -4.291540 9.191007 -3.590266
v 1.897143 9.191008 -5.775036
v 4.066216 9.191007 -3.590266
v 4.066216 9.191005 2.887919
v 4.066216 7.040737 2.887919
v 1.897143 9.191004 5.065077
v -2.122467 9.191004 5.065077
v -4.291540 9.191005 2.887919
v 4.066216 7.040739 -3.590267
v 1.897143 7.040739 -5.775037
v 1.897143 9.191008 -5.775036
v 4.066216 9.191007 -3.590266
v 4.066216 9.191005 2.887919
v 4.066216 7.040737 2.887919
v 1.897143 9.191004 5.065077
v 1.897143 7.040736 5.065077
v 4.302806 9.191007 -3.589755
v 4.302806 9.191005 2.888431
v -4.551466 9.191007 -3.589755
v -4.551466 9.191005 2.888431
v -2.122402 9.191008 -5.941227
v 1.897208 9.191008 -5.941227
v 1.897078 9.191004 5.195635
v -2.252462 9.191004 5.130612
v -2.252462 7.040736 5.130611
v 7.986910 9.191007 -4.211682
v 7.917682 9.191005 2.888431
v 4.631588 9.191001 8.655194
v 7.037315 9.191001 5.739712
v 1.852011 9.191003 9.270586
v -3.045552 9.191003 9.316013
v -8.276845 9.191002 4.725858
v -5.811797 9.191002 8.239837
v -8.290997 9.191005 2.888431
v -8.290997 9.191007 -3.589755
v -7.881296 9.191008 -6.361413
v -4.090033 9.191010 -9.404009
v -2.122402 9.191009 -9.691236
v 2.713768 9.191009 -9.645126
v 7.026048 9.191009 -6.162251
v 4.620450 9.191010 -8.513723
vt 0.000000 0.000000
vt 0.000000 0.000000
vt 0.000000 0.000000
vt 0.000000 0.000000
vt 0.000000 0.000000
vt 0.000000 0.000000
vt 0.000000 0.000000
vt 0.000000 0.000000
vt 0.000000 0.000000
vt 0.000000 0.000000
vt 0.000000 0.000000
vt 0.000000 0.000000
vt 0.000000 0.000000
vt 0.000000 0.000000
vt 0.000000 0.000000
vt 0.000000 0.000000
vt 0.000000 0.000000
vt 0.000000 0.000000
vt 0.000000 0.000000
vt 0.000000 0.000000
vt 0.480769 0.000000
vt 0.250000 0.000000
vt 0.250000 0.000000
vt 0.480769 0.000000
vt 0.000000 0.000000
vt 0.000000 0.000000
vt 0.000000 0.000000
vt 0.000000 0.000000
vt 0.000000 0.000000
vt 0.000000 0.000000
vt 0.000000 0.000000
vt 0.000000 0.000000
vt 0.000000 0.000000
vt 0.980769 0.000000
vt 1.000000 0.000000
vt 0.230769 0.000000
vt 0.250000 1.000000
vt 0.000000 0.000000
vt 0.000000 0.000000
vt 0.000000 0.000000
vt 0.730769 1.000000
vt 0.730769 0.000000
vt 0.750000 0.000000
vt 0.730769 1.000000
vt 0.730769 1.000000
vt 0.000000 0.000000
vt 0.000000 0.000000
vt 0.730769 1.000000
vt 0.000000 0.000000
vt 0.000000 0.000000
vt 0.000000 0.000000
vt 0.000000 0.000000
vt 0.000000 0.000000
vt 0.000000 0.000000
vt 0.000000 0.000000
vt 0.000000 0.000000
vt 0.000000 0.000000
vt 0.000000 0.000000
vt 0.000000 0.000000
vt 0.000000 0.000000
vt 0.000000 0.000000
vt 0.250000 1.000000
vt 0.730769 0.000000
vn 0.0000 1.0000 0.0000
vn 0.0000 0.0000 0.0000
vn 0.0000 0.0000 1.0000
vn 0.9232 -0.0000 -0.3843
vn -0.9232 0.0000 0.3843
vn -1.0000 0.0000 -0.0080
vn -1.0000 0.0000 0.0065
vn 1.0000 0.0000 0.0000
vn -0.7096 0.0065 -0.7045
vn -0.7126 0.0074 -0.7015
vn 0.7097 -0.0000 0.7046
vn 0.0074 0.0043 -1.0000
vn -0.0067 -0.0000 -1.0000
vn 0.7096 0.0067 -0.7046
vn 0.7096 0.0000 -0.7046
vn -0.7097 -0.0000 0.7046
vn -1.0000 0.0000 0.0000
vn -0.7084 0.0000 -0.7058
vn -0.0077 -0.0017 -1.0000
vn 0.0061 -0.0000 1.0000
vn 0.0000 0.0000 -1.0000
vn -0.7084 0.0061 0.7058
vn -0.7084 0.0080 0.7058
vn 0.7084 0.0000 -0.7058
vn -0.0000 1.0000 0.0079
vn 0.0015 1.0000 -0.0015
vn 0.0013 1.0000 0.0017
vn 0.0013 1.0000 -0.0016
vn -0.0013 1.0000 -0.0017
vn 0.0000 -1.0000 -0.0000
usemtl None.001
s off
f 7/1/1 1/2/1 2/3/1 3/4/1 18/5/1 17/6/1 22/7/1 24/8/1 5/9/1 6/10/1
f 13/11/2 4/12/2 17/6/2 22/7/2
f 11/13/2 12/14/2 21/15/2 20/16/2
f 20/16/1 21/15/1 26/17/1 25/18/1
f 10/19/3 11/13/3 20/16/3 19/20/3
f 3/4/3 13/11/3 22/7/3 24/8/3
f 4/21/4 5/22/3 18/23/5 17/24/3
f 12/14/3 14/25/3 23/26/3 21/15/3
f 10/19/1 20/16/1 25/18/1 30/27/1
f 8/28/1 29/29/1 27/30/1 9/31/1
f 16/32/1 9/31/1 27/30/1 28/33/1
f 1/34/6 7/35/7 9/31/8 16/32/8
f 7/35/9 6/36/10 8/28/11 9/31/11
f 8/28/1 10/19/1 30/27/1 29/29/1
f 6/36/12 5/22/13 10/37/3 8/28/3
f 28/33/1 32/38/1 31/39/1 14/25/1 15/40/1 16/32/1
f 18/23/14 17/24/15 20/16/16 19/20/16
f 20/16/17 17/24/8 22/7/17 21/15/17
f 22/7/18 24/8/18 23/41/18 21/15/18
f 3/42/19 2/43/20 15/40/21 14/25/21
f 2/43/22 1/34/23 16/32/24 15/40/24
f 26/17/1 21/15/1 14/44/25 31/45/26
f 25/18/1 26/17/1 35/46/1 34/47/1
f 26/17/1 31/45/27 36/48/28 37/49/1
f 31/39/1 32/38/1 39/50/1 38/51/1
f 32/38/1 28/33/1 40/52/1 41/53/1
f 28/33/1 27/30/1 43/54/1 42/55/1
f 27/30/1 29/29/1 45/56/1 44/57/1
f 29/29/1 30/27/1 47/58/1 46/59/1
f 30/27/1 25/18/1 48/60/1 49/61/1
f 27/30/1 44/57/1 43/54/1
f 28/33/1 42/55/1 40/52/1
f 32/38/1 41/53/1 39/50/1
f 31/39/1 38/51/1 36/48/29
f 26/17/1 37/49/1 35/46/1
f 25/18/1 34/47/1 48/60/1
f 30/27/1 49/61/1 47/58/1
f 45/56/1 29/29/1 46/59/1
s 1
f 5/22/1 10/37/3 19/62/1 18/23/3
f 14/44/30 3/42/3 24/63/30 23/41/3
l 2 33
l 15 32
