# Wavefront OBJ file
# Creator: Ultimate Unwrap3D Pro v3.27
# Website: http://www.unwrap3d.com
# Time: Sat Feb 23 10:22:24 2013
# num_vertices: 66
# num_vertex_normals: 66
# num_faces: 32
# num_groups: 1

mtllib StairSteps.mtl

v -1.458158 0.599618 -0.000000
v -1.458158 0.599618 5.000000
v -1.483696 0.624600 -0.000000
v -1.483696 0.624600 5.000000
v -1.499542 0.556291 5.000000
v -1.499542 0.556291 -0.000000
v -1.833044 0.724538 -0.000000
v -1.833044 0.724538 5.000000
v -1.858581 0.749520 -0.000000
v -1.858581 0.749520 5.000000
v -1.874429 0.681211 5.000000
v -1.874429 0.681211 -0.000000
v -1.874429 0.624600 -0.000000
v -1.874429 0.624600 5.000000
v -2.207929 0.849458 -0.000000
v -2.207929 0.849458 5.000000
v -2.233467 0.874440 -0.000000
v -2.233467 0.874440 5.000000
v -2.249313 0.806131 5.000000
v -2.249313 0.806131 -0.000000
v -2.249313 0.749520 -0.000000
v -2.249313 0.749520 5.000000
v -2.582815 0.974378 -0.000000
v -2.582815 0.974378 5.000000
v -3.000000 1.000000 5.000000
v -3.000000 1.000000 -0.000000
v -2.608352 1.000000 -0.000000
v -2.608352 1.000000 5.000000
v -2.624200 0.931051 5.000000
v -2.624200 0.931051 -0.000000
v -2.624201 0.874440 -0.000000
v -2.624201 0.874440 5.000000
v 0.041384 0.099938 -0.000000
v 0.041384 0.099938 5.000000
v 0.015846 0.124920 -0.000000
v 0.015846 0.124920 5.000000
v -0.000000 0.056611 5.000000
v -0.000000 0.056611 -0.000000
v -0.000000 0.000000 -0.000000
v -0.000000 -0.000000 5.000000
v -0.333502 0.224858 -0.000000
v -0.333502 0.224858 5.000000
v -0.359039 0.249840 -0.000000
v -0.359039 0.249840 5.000000
v -0.374886 0.181531 5.000000
v -0.374886 0.181531 -0.000000
v -0.374886 0.124920 -0.000000
v -0.374886 0.124920 5.000000
v -0.708387 0.349778 -0.000000
v -0.708387 0.349778 5.000000
v -0.733925 0.374760 -0.000000
v -0.733925 0.374760 5.000000
v -0.749771 0.306451 5.000000
v -0.749771 0.306451 -0.000000
v -0.749771 0.249840 -0.000000
v -0.749771 0.249840 5.000000
v -1.083273 0.474698 -0.000000
v -1.083273 0.474698 5.000000
v -1.499542 0.499680 5.000000
v -1.499542 0.499680 -0.000000
v -1.108810 0.499680 -0.000000
v -1.108810 0.499680 5.000000
v -1.124658 0.431371 5.000000
v -1.124658 0.431371 -0.000000
v -1.124658 0.374760 -0.000000
v -1.124658 0.374760 5.000000
# num_vertices: 66

vn 0.999856 0.016972 0.000000
vn 0.999856 0.016972 0.000000
vn 0.377596 0.925971 0.000000
vn 0.377596 0.925971 0.000000
vn 0.928209 -0.372059 0.000000
vn 0.928209 -0.372059 0.000000
vn 0.999856 0.016967 0.000000
vn 0.999856 0.016967 0.000000
vn 0.377595 0.925971 0.000000
vn 0.377595 0.925971 0.000000
vn 0.928207 -0.372065 0.000000
vn 0.928207 -0.372065 0.000000
vn 0.707107 0.707107 0.000000
vn 0.707107 0.707107 0.000000
vn 0.999856 0.016971 0.000000
vn 0.999856 0.016971 0.000000
vn 0.377597 0.925970 0.000000
vn 0.377597 0.925970 0.000000
vn 0.928209 -0.372060 0.000000
vn 0.928209 -0.372060 0.000000
vn 0.707107 0.707107 0.000000
vn 0.707107 0.707107 0.000000
vn 0.999943 0.010640 0.000000
vn 0.999943 0.010640 0.000000
vn 0.000000 1.000000 0.000000
vn 0.000000 1.000000 0.000000
vn 0.383446 0.923563 0.000000
vn 0.383446 0.923563 0.000000
vn 0.928203 -0.372073 0.000000
vn 0.928203 -0.372073 0.000000
vn 0.707113 0.707101 0.000000
vn 0.707113 0.707101 0.000000
vn 0.999856 0.016972 0.000000
vn 0.999856 0.016972 0.000000
vn 0.377596 0.925971 0.000000
vn 0.377596 0.925971 0.000000
vn 0.928209 -0.372060 0.000000
vn 0.928209 -0.372060 0.000000
vn 1.000000 0.000000 0.000000
vn 1.000000 0.000000 0.000000
vn 0.999856 0.016966 0.000000
vn 0.999856 0.016966 0.000000
vn 0.377596 0.925971 0.000000
vn 0.377596 0.925971 0.000000
vn 0.928207 -0.372065 0.000000
vn 0.928207 -0.372065 0.000000
vn 0.707107 0.707107 0.000000
vn 0.707107 0.707107 0.000000
vn 0.999856 0.016971 0.000000
vn 0.999856 0.016971 0.000000
vn 0.377596 0.925970 0.000000
vn 0.377596 0.925970 0.000000
vn 0.928209 -0.372060 0.000000
vn 0.928209 -0.372060 0.000000
vn 0.707107 0.707107 0.000000
vn 0.707107 0.707107 0.000000
vn 0.999856 0.016965 0.000000
vn 0.999856 0.016965 0.000000
vn 0.707107 0.707107 0.000000
vn 0.707107 0.707107 0.000000
vn 0.377596 0.925970 0.000000
vn 0.377596 0.925970 0.000000
vn 0.928207 -0.372065 0.000000
vn 0.928207 -0.372065 0.000000
vn 0.707107 0.707107 0.000000
vn 0.707107 0.707107 0.000000
# num_vertex_normals: 66

g StairSteps_Layer1
s 1

usemtl StoneFloorDark
f 66//66 65//65 64//64 63//63 
f 62//62 61//61 60//60 59//59 
f 62//62 58//58 57//57 61//61 
f 63//63 64//64 57//57 58//58 
f 56//56 55//55 54//54 53//53 
f 52//52 51//51 65//65 66//66 
f 52//52 50//50 49//49 51//51 
f 53//53 54//54 49//49 50//50 
f 48//48 47//47 46//46 45//45 
f 44//44 43//43 55//55 56//56 
f 44//44 42//42 41//41 43//43 
f 45//45 46//46 41//41 42//42 
f 40//40 39//39 38//38 37//37 
f 36//36 35//35 47//47 48//48 
f 36//36 34//34 33//33 35//35 
f 37//37 38//38 33//33 34//34 
f 32//32 31//31 30//30 29//29 
f 28//28 27//27 26//26 25//25 
f 28//28 24//24 23//23 27//27 
f 29//29 30//30 23//23 24//24 
f 22//22 21//21 20//20 19//19 
f 18//18 17//17 31//31 32//32 
f 18//18 16//16 15//15 17//17 
f 19//19 20//20 15//15 16//16 
f 14//14 13//13 12//12 11//11 
f 10//10 9//9 21//21 22//22 
f 10//10 8//8 7//7 9//9 
f 11//11 12//12 7//7 8//8 
f 59//59 60//60 6//6 5//5 
f 4//4 3//3 13//13 14//14 
f 4//4 2//2 1//1 3//3 
f 5//5 6//6 1//1 2//2 
# num_faces: 32

