# Blender v3.0.0 OBJ File: 'Table.blend'
# www.blender.org
mtllib String.mtl
o pCylinder224_Mesh.003
v 0.354424 -3.920540 0.270832
v 0.200514 -3.920540 0.401987
v 0.010269 -3.920540 0.401987
v -0.143642 -3.920540 0.270832
v -0.202431 -3.920540 0.058627
v -0.143642 -3.920540 -0.153577
v 0.010269 -3.920540 -0.284733
v 0.200514 -3.920540 -0.284733
v 0.354424 -3.920540 -0.153577
v 0.413214 -3.920540 0.058627
v -0.202431 4.439504 0.058628
v -0.143642 4.439504 0.270832
v 0.010269 4.439504 0.401988
v 0.200514 4.439504 0.401988
v 0.354424 4.439504 0.270832
v 0.413214 4.439504 0.058628
v 0.354424 4.439504 -0.153577
v 0.200514 4.439504 -0.284732
v 0.010269 4.439504 -0.284732
v -0.143642 4.439504 -0.153577
vt 0.653855 0.562540
vt 0.659182 0.562648
vt 0.652926 0.870851
vt 0.647600 0.870743
vt 0.648528 0.562431
vt 0.642273 0.870635
vt 0.643200 0.562324
vt 0.636945 0.870527
vt 0.637873 0.562216
vt 0.631618 0.870419
vt 0.632547 0.562107
vt 0.626291 0.870310
vt 0.627220 0.561999
vt 0.620964 0.870202
vt 0.621893 0.561891
vt 0.615637 0.870094
vt 0.669835 0.562864
vt 0.675162 0.562972
vt 0.668905 0.871176
vt 0.663578 0.871067
vt 0.664508 0.562756
vt 0.658252 0.870959
vn -0.9637 -0.0000 0.2670
vn -0.6486 -0.0000 0.7611
vn 0.0000 -0.0000 1.0000
vn 0.6486 -0.0000 0.7611
vn 0.9637 -0.0000 0.2670
vn 0.9637 0.0000 -0.2670
vn 0.6486 0.0000 -0.7611
vn 0.0000 0.0000 -1.0000
vn -0.6486 0.0000 -0.7611
vn -0.9637 0.0000 -0.2670
usemtl M_table_chairs_bench
s 1
f 12/1/1 11/2/1 5/3/1 4/4/1
f 13/5/2 12/1/2 4/4/2 3/6/2
f 14/7/3 13/5/3 3/6/3 2/8/3
f 15/9/4 14/7/4 2/8/4 1/10/4
f 16/11/5 15/9/5 1/10/5 10/12/5
f 17/13/6 16/11/6 10/12/6 9/14/6
f 18/15/7 17/13/7 9/14/7 8/16/7
f 19/17/8 18/18/8 8/19/8 7/20/8
f 20/21/9 19/17/9 7/20/9 6/22/9
f 11/2/10 20/21/10 6/22/10 5/3/10
