# Blender v3.0.0 OBJ File: ''
# www.blender.org
mtllib PlaceholderRaccoonDoorWay.mtl
o Plane
v 103.956802 144.037292 -16.634417
v 103.956848 -2.228989 -16.634417
v -86.319672 144.037231 -16.634340
v -86.319626 -2.229050 -16.634340
v -38.750526 70.904106 -16.634359
v -14.965981 107.470688 -16.634369
v 32.603172 -2.229012 -16.634388
v 20.710865 89.187408 -16.634384
v -26.858252 80.045753 -16.634363
v -26.858259 102.899857 -16.634363
v -44.696655 34.337536 -16.634357
v -47.669731 43.479179 -16.634356
v -20.912086 -2.229027 -16.634367
v -20.912121 107.470688 -16.634367
v -9.019838 102.899864 -16.634371
v 14.764725 89.187408 -16.634380
v 65.306923 43.479210 -16.634401
v -3.073697 93.758224 -16.634373
v 56.387711 66.333313 -16.634398
v -41.723595 66.333282 -16.634357
v -50.642807 57.191639 -16.634354
v 62.333855 48.050034 -16.634399
v -47.669724 38.908356 -16.634356
v -38.750511 22.910484 -16.634359
v 62.333862 22.910515 -16.634399
v -41.723579 27.481304 -16.634357
v 65.306931 27.481339 -16.634401
v -41.723587 32.052124 -16.634357
v -44.696655 36.622948 -16.634357
v -50.642799 45.764587 -16.634354
v 62.333855 50.335442 -16.634399
v 56.387711 59.477081 -16.634398
v -44.696663 64.047874 -16.634357
v 59.360779 68.618729 -16.634399
v 62.333847 73.189552 -16.634399
v 32.603146 82.331184 -16.634388
v -26.858252 82.331161 -16.634363
v 35.576218 82.331184 -16.634390
v 62.333847 86.902016 -16.634399
v -29.831324 86.901985 -16.634363
v 26.657003 86.902000 -16.634386
v 23.670780 86.902000 -16.634384
v 41.522354 86.902008 -16.634392
v 56.387703 91.472832 -16.634398
v -0.100626 91.472816 -16.634375
v 11.791654 91.472816 -16.634380
v 50.441559 91.472832 -16.634396
v -29.831327 96.043625 -16.634363
v -37.824509 70.733994 6.896975
v -14.039961 107.300568 6.896965
v 33.529190 -2.399132 6.896946
v 21.636883 89.017296 6.896950
v -25.932234 79.875641 6.896969
v -25.932241 102.729744 6.896969
v -43.770638 34.167423 6.896976
v -46.743713 43.309059 6.896978
v -19.986065 -2.399147 6.896967
v -19.986099 107.300568 6.896967
v -8.093821 102.729752 6.896963
v 15.690743 89.017296 6.896954
v 66.232941 43.309097 6.896933
v -2.147677 93.588104 6.896959
v 57.313728 66.163200 6.896936
v -40.797577 66.163170 6.896975
v -49.716789 57.021523 6.896978
v 63.259872 47.879917 6.896935
v -46.743706 38.738239 6.896978
v -37.824493 22.740368 6.896975
v 63.259880 22.740398 6.896935
v -40.797562 27.311192 6.896975
v 66.232948 27.311226 6.896933
v -40.797569 31.882011 6.896975
v -43.770638 36.452831 6.896976
v -49.716782 45.594471 6.896978
v 63.259872 50.165329 6.896935
v 57.313728 59.306969 6.896936
v -43.770645 63.877758 6.896976
v 60.286797 68.448608 6.896935
v 63.259865 73.019432 6.896935
v 33.529167 82.161064 6.896946
v -25.932234 82.161049 6.896969
v 36.502235 82.161072 6.896944
v 63.259865 86.731895 6.896935
v -28.905306 86.731873 6.896971
v 27.583023 86.731888 6.896948
v 24.596798 86.731888 6.896950
v 42.448372 86.731888 6.896942
v 57.313721 91.302719 6.896936
v 0.825393 91.302704 6.896959
v 12.717672 91.302704 6.896954
v 51.367577 91.302719 6.896938
v -28.905310 95.873512 6.896971
vt 0.828125 0.750000
vt 1.000000 0.656250
vt 1.000000 1.000000
vt 0.687500 0.796875
vt 0.718750 0.796875
vt 0.359375 0.484375
vt 0.000000 0.000000
vt 0.375000 0.468750
vt 0.375000 0.437500
vt 0.390625 0.421944
vt 0.281250 0.687500
vt 0.000000 1.000000
vt 0.250000 0.656250
vt 0.250000 0.625000
vt 0.750000 0.781250
vt 0.765625 0.765625
vt 0.734375 0.781250
vt 0.796875 0.765625
vt 0.281250 0.593750
vt 0.671875 0.812500
vt 0.390625 0.406250
vt 0.421875 0.375000
vt 0.421875 0.359375
vt 0.390625 0.328125
vt 0.546875 0.781250
vt 0.593750 0.812500
vt 0.531250 0.765625
vt 1.000000 0.000000
vt 1.000000 0.375000
vt 0.828125 0.218750
vt 0.500000 0.750000
vt 0.437500 0.687500
vt 0.359375 0.250000
vt 0.390625 0.218750
vt 0.359375 0.281250
vt 0.421875 0.687500
vt 0.390625 0.703125
vt 0.359375 0.546875
vt 0.343750 0.562500
vt 0.328125 0.703125
vt 0.484375 0.218750
vt 0.515625 0.234375
vt 0.531250 0.250000
vt 0.578125 0.250000
vt 0.640625 0.218750
vt 0.656250 0.218750
vt 0.687500 0.203125
vt 0.796875 0.203125
vt 0.437500 0.687500
vt 0.718750 0.796875
vt 0.390625 0.421944
vt 0.500000 0.750000
vt 0.531250 0.250000
vt 0.421875 0.687500
vt 0.656250 0.218750
vt 0.281250 0.687500
vt 0.531250 0.765625
vt 0.515625 0.234375
vt 0.421875 0.359375
vt 0.375000 0.468750
vt 0.765625 0.765625
vt 0.250000 0.656250
vt 0.359375 0.546875
vt 0.546875 0.781250
vt 0.484375 0.218750
vt 0.593750 0.812500
vt 0.390625 0.218750
vt 0.390625 0.406250
vt 0.671875 0.812500
vt 0.734375 0.781250
vt 0.359375 0.281250
vt 0.390625 0.703125
vt 0.281250 0.593750
vt 0.640625 0.218750
vt 0.250000 0.625000
vt 0.687500 0.796875
vt 0.359375 0.250000
vt 0.578125 0.250000
vt 0.796875 0.203125
vt 0.359375 0.484375
vt 1.000000 0.375000
vt 0.828125 0.750000
vt 0.375000 0.437500
vt 0.390625 0.328125
vt 0.343750 0.562500
vt 0.828125 0.218750
vt 0.796875 0.765625
vt 0.328125 0.703125
vt 0.687500 0.203125
vt 0.750000 0.781250
vt 0.421875 0.375000
vt 1.000000 0.656250
vn -0.0000 0.0000 -1.0000
vn 0.6092 -0.7925 -0.0297
vn 0.6093 0.7927 -0.0182
vn -0.6110 -0.7914 0.0183
vn 0.8377 -0.5449 -0.0369
vn -0.6092 0.7925 0.0297
vn 0.9992 0.0000 -0.0393
vn -0.9992 0.0000 0.0393
vn 0.9168 -0.3975 -0.0390
vn -0.8377 0.5449 0.0369
vn 0.0000 -1.0000 -0.0072
vn -0.6093 -0.7927 0.0182
vn 0.7550 -0.6548 -0.0344
vn 0.4559 -0.8897 -0.0244
vn 0.8379 0.5450 -0.0290
vn -0.8379 -0.5450 0.0290
vn -0.6454 0.7632 0.0309
vn 0.8152 0.5785 -0.0279
usemtl None
s 1
f 24/1/1 13/2/1 4/3/1
f 12/4/1 23/5/1 4/3/1
f 46/6/1 1/7/1 16/8/1
f 8/9/1 1/7/1 42/10/1
f 10/11/1 3/12/1 14/13/1
f 14/13/1 3/12/1 6/14/1
f 11/15/1 28/16/1 4/3/1
f 29/17/1 11/15/1 4/3/1
f 23/5/1 29/17/1 4/3/1
f 28/16/1 26/18/1 4/3/1
f 1/7/1 15/19/1 6/14/1
f 30/20/1 12/4/1 4/3/1
f 42/10/1 1/7/1 41/21/1
f 36/22/1 1/7/1 38/23/1
f 41/21/1 1/7/1 36/22/1
f 38/23/1 1/7/1 43/24/1
f 16/8/1 1/7/1 8/9/1
f 33/25/1 21/26/1 3/12/1
f 20/27/1 33/25/1 3/12/1
f 2/28/1 7/29/1 25/30/1
f 26/18/1 24/1/1 4/3/1
f 20/27/1 3/12/1 5/31/1
f 9/32/1 5/31/1 3/12/1
f 44/33/1 1/7/1 39/34/1
f 43/24/1 1/7/1 47/35/1
f 4/3/1 3/12/1 21/26/1
f 9/32/1 3/12/1 37/36/1
f 37/36/1 3/12/1 40/37/1
f 45/38/1 1/7/1 46/6/1
f 15/19/1 1/7/1 18/39/1
f 18/39/1 1/7/1 45/38/1
f 3/12/1 48/40/1 40/37/1
f 48/40/1 3/12/1 10/11/1
f 47/35/1 1/7/1 44/33/1
f 39/34/1 1/7/1 35/41/1
f 1/7/1 2/28/1 35/41/1
f 35/41/1 2/28/1 34/42/1
f 34/42/1 2/28/1 19/43/1
f 19/43/1 2/28/1 32/44/1
f 32/44/1 2/28/1 31/45/1
f 31/45/1 2/28/1 22/46/1
f 22/46/1 2/28/1 17/47/1
f 17/47/1 2/28/1 27/48/1
f 27/48/1 2/28/1 25/30/1
f 5/31/2 9/32/2 53/49/2
f 29/17/3 23/5/3 67/50/3
f 8/9/4 42/10/4 86/51/4
f 20/27/5 5/31/5 49/52/5
f 34/42/6 19/43/6 63/53/6
f 9/32/7 37/36/7 81/54/7
f 31/45/8 22/46/8 66/55/8
f 48/40/9 10/11/9 54/56/9
f 33/25/2 20/27/2 64/57/2
f 35/41/10 34/42/10 78/58/10
f 36/22/11 38/23/11 82/59/11
f 46/6/12 16/8/12 60/60/12
f 26/18/7 28/16/7 72/61/7
f 10/11/2 14/13/2 58/62/2
f 18/39/12 45/38/12 89/63/12
f 21/26/13 33/25/13 77/64/13
f 39/34/8 35/41/8 79/65/8
f 30/20/7 21/26/7 65/66/7
f 44/33/12 39/34/12 83/67/12
f 42/10/11 41/21/11 85/68/11
f 12/4/3 30/20/3 74/69/3
f 11/15/7 29/17/7 73/70/7
f 43/24/14 47/35/14 91/71/14
f 37/36/15 40/37/15 84/72/15
f 6/14/12 15/19/12 59/73/12
f 32/44/16 31/45/16 75/74/16
f 14/13/11 6/14/11 50/75/11
f 23/5/7 12/4/7 56/76/7
f 47/35/11 44/33/11 88/77/11
f 19/43/8 32/44/8 76/78/8
f 17/47/8 27/48/8 71/79/8
f 45/38/11 46/6/11 90/80/11
f 25/30/17 7/29/17 51/81/17
f 13/2/18 24/1/18 68/82/18
f 16/8/11 8/9/11 52/83/11
f 38/23/2 43/24/2 87/84/2
f 15/19/16 18/39/16 62/85/16
f 27/48/10 25/30/10 69/86/10
f 24/1/15 26/18/15 70/87/15
f 40/37/7 48/40/7 92/88/7
f 22/46/16 17/47/16 61/89/16
f 28/16/3 11/15/3 55/90/3
f 41/21/12 36/22/12 80/91/12
f 67/50/7 23/5/7 56/76/7
f 73/70/3 29/17/3 67/50/3
f 72/61/3 28/16/3 55/90/3
f 55/90/7 11/15/7 73/70/7
f 56/76/3 12/4/3 74/69/3
f 74/69/7 30/20/7 65/66/7
f 65/66/13 21/26/13 77/64/13
f 77/64/2 33/25/2 64/57/2
f 64/57/5 20/27/5 49/52/5
f 49/52/2 5/31/2 53/49/2
f 53/49/7 9/32/7 81/54/7
f 81/54/15 37/36/15 84/72/15
f 84/72/7 40/37/7 92/88/7
f 92/88/9 48/40/9 54/56/9
f 54/56/2 10/11/2 58/62/2
f 58/62/11 14/13/11 50/75/11
f 50/75/12 6/14/12 59/73/12
f 59/73/16 15/19/16 62/85/16
f 62/85/12 18/39/12 89/63/12
f 89/63/11 45/38/11 90/80/11
f 90/80/12 46/6/12 60/60/12
f 60/60/11 16/8/11 52/83/11
f 52/83/4 8/9/4 86/51/4
f 86/51/11 42/10/11 85/68/11
f 85/68/12 41/21/12 80/91/12
f 80/91/11 36/22/11 82/59/11
f 82/59/2 38/23/2 87/84/2
f 87/84/14 43/24/14 91/71/14
f 91/71/11 47/35/11 88/77/11
f 88/77/12 44/33/12 83/67/12
f 83/67/8 39/34/8 79/65/8
f 79/65/10 35/41/10 78/58/10
f 78/58/6 34/42/6 63/53/6
f 63/53/8 19/43/8 76/78/8
f 76/78/16 32/44/16 75/74/16
f 75/74/8 31/45/8 66/55/8
f 66/55/16 22/46/16 61/89/16
f 61/89/8 17/47/8 71/79/8
f 71/79/10 27/48/10 69/86/10
f 69/86/17 25/30/17 51/81/17
f 70/87/7 26/18/7 72/61/7
f 68/82/15 24/1/15 70/87/15
f 57/92/18 13/2/18 68/82/18
f 3/12/1 1/7/1 6/14/1
f 30/20/1 4/3/1 21/26/1
