# Blender v3.0.0 OBJ File: ''
# www.blender.org
mtllib SM_ElevatorDoor.mtl
o painting_1.001_Cube.024
v 0.009213 0.849288 -0.805047
v 0.009213 1.401365 -0.805047
v 0.034656 1.401365 -0.805047
v 0.034656 0.849288 -0.805047
v 0.034656 1.308266 0.436075
v 0.034656 0.948033 0.436075
v 0.009153 0.948033 0.436075
v 0.009153 1.308266 0.436075
v 0.034656 0.849288 0.555699
v 0.034656 1.401365 0.555699
v 0.009213 1.401365 0.555699
v 0.009213 0.849288 0.555699
v 0.034656 1.308266 -0.684074
v 0.034656 0.948033 -0.684074
v 0.009153 0.948033 -0.684074
v 0.009153 1.308266 -0.684074
vt 0.375000 0.000000
vt 0.625000 0.000000
vt 0.625000 0.250000
vt 0.375000 0.250000
vt 0.615181 0.493797
vt 0.384819 0.493797
vt 0.384819 0.493797
vt 0.615181 0.493797
vt 0.375000 0.500000
vt 0.625000 0.500000
vt 0.625000 0.750000
vt 0.375000 0.750000
vt 0.125000 0.500000
vt 0.125000 0.750000
vt 0.875000 0.500000
vt 0.875000 0.750000
vt 0.615181 0.256203
vt 0.384819 0.256203
vt 0.384819 0.256203
vt 0.615181 0.256203
vt 0.000000 0.000000
vn 0.0000 0.0000 -1.0000
vn 0.0000 -0.0000 1.0000
vn 0.0000 -1.0000 -0.0000
vn 0.0000 1.0000 0.0000
vn 1.0000 -0.0000 0.0000
vn -1.0000 -0.0003 0.0003
vn -1.0000 0.0003 0.0003
vn -1.0000 0.0003 0.0002
vn -1.0000 -0.0003 0.0002
vn -1.0000 0.0003 -0.0003
vn -1.0000 0.0003 -0.0002
vn -1.0000 -0.0003 -0.0003
vn -1.0000 -0.0003 -0.0002
usemtl black.001
s 1
f 1/1/1 2/2/1 3/3/1 4/4/1
f 5/5/1 6/6/1 7/7/1 8/8/1
f 9/9/2 10/10/2 11/11/2 12/12/2
f 4/13/3 9/9/3 12/12/3 1/14/3
f 10/10/4 3/15/4 2/16/4 11/11/4
f 13/17/5 14/18/5 4/4/5 3/3/5
f 14/18/5 6/6/5 9/9/5 4/4/5
f 5/5/5 13/17/5 3/3/5 10/10/5
f 6/6/5 5/5/5 10/10/5 9/9/5
f 6/6/4 14/18/4 15/19/4 7/7/4
f 13/17/3 5/5/3 8/8/3 16/20/3
f 14/18/2 13/17/2 16/20/2 15/19/2
f 12/12/6 11/11/7 8/21/8
f 8/21/8 7/7/9 12/12/6
f 11/11/7 2/16/10 8/21/8
f 8/21/8 2/16/10 16/20/11
f 2/16/10 1/1/12 16/20/11
f 16/20/11 1/1/12 15/19/13
f 1/1/12 12/12/6 15/19/13
f 15/19/13 12/12/6 7/7/9
